HIERARCHY
ROOT hips
{
	OFFSET 0.000000 104.274902 0.000000
	CHANNELS 6 Xposition Yposition Zposition Xrotation Yrotation Zrotation
	JOINT spine
	{
		OFFSET 0.000000 10.181549 0.131524
		CHANNELS 6 Xposition Yposition Zposition Xrotation Yrotation Zrotation
		JOINT chest
		{
			OFFSET 0.000000 9.893990 -1.470706
			CHANNELS 3 Xrotation Yrotation Zrotation
			JOINT upperChest
			{
				OFFSET 0.000000 9.220787 -1.370637
				CHANNELS 3 Xrotation Yrotation Zrotation
				JOINT neck
				{
					OFFSET 0.000000 16.740372 -2.049022
					CHANNELS 6 Xposition Yposition Zposition Xrotation Yrotation Zrotation
					JOINT head
					{
						OFFSET 0.000000 9.617859 1.684976
						CHANNELS 6 Xposition Yposition Zposition Xrotation Yrotation Zrotation
						JOINT headEnd
						{
							OFFSET 0.000000 22.037384 7.501072
							CHANNELS 6 Xposition Yposition Zposition Xrotation Yrotation Zrotation
							End Site
							{
								OFFSET 0.000000 23.106567 -2.828246
							}
						}
					}
				}
				JOINT rightShoulder
				{
					OFFSET -4.570000 11.014877 -2.160840
					CHANNELS 6 Xposition Yposition Zposition Xrotation Yrotation Zrotation
					JOINT rightUpperArm
					{
						OFFSET -10.592867 -0.524796 -2.232105
						CHANNELS 3 Xrotation Yrotation Zrotation
						JOINT rightLowerArm
						{
							OFFSET -27.841497 0.000000 -0.000002
							CHANNELS 3 Xrotation Yrotation Zrotation
							JOINT rightHand
							{
								OFFSET -28.328812 0.000000 -0.000001
								CHANNELS 3 Xrotation Yrotation Zrotation
								JOINT rightThumbProximal
								{
									OFFSET -2.464798 -1.573990 2.681911
									CHANNELS 6 Xposition Yposition Zposition Xrotation Yrotation Zrotation
									JOINT rightThumbIntermediate
									{
										OFFSET -3.244781 -1.873383 1.873376
										CHANNELS 3 Xrotation Yrotation Zrotation
										JOINT rightThumbDistal
										{
											OFFSET -2.646263 -1.527817 1.527818
											CHANNELS 6 Xposition Yposition Zposition Xrotation Yrotation Zrotation
											JOINT rightHandThumb4
											{
												OFFSET -1.994591 -1.151581 1.151575
												CHANNELS 6 Xposition Yposition Zposition Xrotation Yrotation Zrotation
												End Site
												{
													OFFSET -1.860176 -1.142715 1.365483
												}
											}
										}
									}
								}
								JOINT rightIndexProximal
								{
									OFFSET -9.108299 -0.517883 2.259803
									CHANNELS 6 Xposition Yposition Zposition Xrotation Yrotation Zrotation
									JOINT rightIndexIntermediate
									{
										OFFSET -3.699997 0.000000 0.000000
										CHANNELS 3 Xrotation Yrotation Zrotation
										JOINT rightIndexDistal
										{
											OFFSET -2.850006 0.000000 0.000000
											CHANNELS 3 Xrotation Yrotation Zrotation
											JOINT rightHandIndex4
											{
												OFFSET -2.772194 0.000000 0.000000
												CHANNELS 3 Xrotation Yrotation Zrotation
												End Site
												{
													OFFSET -2.772202 0.000000 -0.000484
												}
											}
										}
									}
								}
								JOINT rightMiddleProximal
								{
									OFFSET -9.532501 0.000000 -0.000000
									CHANNELS 6 Xposition Yposition Zposition Xrotation Yrotation Zrotation
									JOINT rightMiddleIntermediate
									{
										OFFSET -3.699997 0.000000 0.000000
										CHANNELS 3 Xrotation Yrotation Zrotation
										JOINT rightMiddleDistal
										{
											OFFSET -2.949997 0.000000 0.000000
											CHANNELS 3 Xrotation Yrotation Zrotation
											JOINT rightHandMiddle4
											{
												OFFSET -2.946594 0.000000 0.000000
												CHANNELS 3 Xrotation Yrotation Zrotation
												End Site
												{
													OFFSET -2.946602 0.000000 -0.000982
												}
											}
										}
									}
								}
								JOINT rightRingProximal
								{
									OFFSET -9.103600 -0.043106 -1.865100
									CHANNELS 6 Xposition Yposition Zposition Xrotation Yrotation Zrotation
									JOINT rightRingIntermediate
									{
										OFFSET -3.379303 0.000000 0.000000
										CHANNELS 3 Xrotation Yrotation Zrotation
										JOINT rightRingDistal
										{
											OFFSET -2.889694 0.000000 0.000000
											CHANNELS 3 Xrotation Yrotation Zrotation
											JOINT rightHandRing4
											{
												OFFSET -2.638802 0.000000 0.000000
												CHANNELS 3 Xrotation Yrotation Zrotation
												End Site
												{
													OFFSET -2.638802 0.000000 0.004218
												}
											}
										}
									}
								}
								JOINT rightLittleProximal
								{
									OFFSET -8.076698 -0.486725 -3.806299
									CHANNELS 6 Xposition Yposition Zposition Xrotation Yrotation Zrotation
									JOINT rightLittleIntermediate
									{
										OFFSET -3.600006 0.000000 0.000000
										CHANNELS 3 Xrotation Yrotation Zrotation
										JOINT rightLittleDistal
										{
											OFFSET -2.099998 0.000000 0.000000
											CHANNELS 3 Xrotation Yrotation Zrotation
											JOINT rightHandPinky4
											{
												OFFSET -2.115791 0.000000 0.000000
												CHANNELS 3 Xrotation Yrotation Zrotation
												End Site
												{
													OFFSET -2.115799 0.000000 0.000174
												}
											}
										}
									}
								}
							}
						}
					}
				}
				JOINT leftShoulder
				{
					OFFSET 4.570400 11.014679 -2.160816
					CHANNELS 6 Xposition Yposition Zposition Xrotation Yrotation Zrotation
					JOINT leftUpperArm
					{
						OFFSET 10.592373 -0.524597 -2.232116
						CHANNELS 3 Xrotation Yrotation Zrotation
						JOINT leftLowerArm
						{
							OFFSET 27.841488 0.000000 0.000001
							CHANNELS 3 Xrotation Yrotation Zrotation
							JOINT leftHand
							{
								OFFSET 28.328808 0.000000 -0.000000
								CHANNELS 3 Xrotation Yrotation Zrotation
								JOINT leftThumbProximal
								{
									OFFSET 2.466103 -1.576202 2.681698
									CHANNELS 6 Xposition Yposition Zposition Xrotation Yrotation Zrotation
									JOINT leftThumbIntermediate
									{
										OFFSET 3.243317 -1.872528 1.872530
										CHANNELS 3 Xrotation Yrotation Zrotation
										JOINT leftThumbDistal
										{
											OFFSET 2.647881 -1.528763 1.528754
											CHANNELS 6 Xposition Yposition Zposition Xrotation Yrotation Zrotation
											JOINT leftHandThumb4
											{
												OFFSET 1.998924 -1.154083 1.154080
												CHANNELS 6 Xposition Yposition Zposition Xrotation Yrotation Zrotation
												End Site
												{
													OFFSET 1.884041 -1.149155 1.337651
												}
											}
										}
									}
								}
								JOINT leftIndexProximal
								{
									OFFSET 9.109299 -0.518005 2.259900
									CHANNELS 6 Xposition Yposition Zposition Xrotation Yrotation Zrotation
									JOINT leftIndexIntermediate
									{
										OFFSET 3.699997 0.000000 0.000000
										CHANNELS 3 Xrotation Yrotation Zrotation
										JOINT leftIndexDistal
										{
											OFFSET 2.850006 0.000000 0.000000
											CHANNELS 3 Xrotation Yrotation Zrotation
											JOINT leftHandIndex4
											{
												OFFSET 2.774895 0.000000 0.000000
												CHANNELS 3 Xrotation Yrotation Zrotation
												End Site
												{
													OFFSET 2.774902 0.000000 -0.000072
												}
											}
										}
									}
								}
								JOINT leftMiddleProximal
								{
									OFFSET 9.533401 0.000000 0.000000
									CHANNELS 6 Xposition Yposition Zposition Xrotation Yrotation Zrotation
									JOINT leftMiddleIntermediate
									{
										OFFSET 3.699997 0.000000 0.000000
										CHANNELS 3 Xrotation Yrotation Zrotation
										JOINT leftMiddleDistal
										{
											OFFSET 2.949997 0.000000 0.000000
											CHANNELS 3 Xrotation Yrotation Zrotation
											JOINT leftHandMiddle4
											{
												OFFSET 2.952896 0.000000 0.000000
												CHANNELS 3 Xrotation Yrotation Zrotation
												End Site
												{
													OFFSET 2.952904 0.000000 0.000165
												}
											}
										}
									}
								}
								JOINT leftRingProximal
								{
									OFFSET 9.104500 -0.042999 -1.865101
									CHANNELS 6 Xposition Yposition Zposition Xrotation Yrotation Zrotation
									JOINT leftRingIntermediate
									{
										OFFSET 3.149994 0.000000 0.000000
										CHANNELS 3 Xrotation Yrotation Zrotation
										JOINT leftRingDistal
										{
											OFFSET 2.950005 0.000000 0.000000
											CHANNELS 3 Xrotation Yrotation Zrotation
											JOINT leftHandRing4
											{
												OFFSET 2.644302 0.000000 0.000000
												CHANNELS 3 Xrotation Yrotation Zrotation
												End Site
												{
													OFFSET 2.644302 0.000000 0.000083
												}
											}
										}
									}
								}
								JOINT leftLittleProximal
								{
									OFFSET 8.077805 -0.486893 -3.806302
									CHANNELS 6 Xposition Yposition Zposition Xrotation Yrotation Zrotation
									JOINT leftLittleIntermediate
									{
										OFFSET 3.600006 0.000000 0.000000
										CHANNELS 3 Xrotation Yrotation Zrotation
										JOINT leftLittleDistal
										{
											OFFSET 2.099998 0.000000 0.000000
											CHANNELS 3 Xrotation Yrotation Zrotation
											JOINT leftHandPinky4
											{
												OFFSET 2.125496 0.000000 0.000000
												CHANNELS 3 Xrotation Yrotation Zrotation
												End Site
												{
													OFFSET 2.125504 0.000000 -0.001254
												}
											}
										}
									}
								}
							}
						}
					}
				}
			}
		}
	}
	JOINT rightUpperLeg
	{
		OFFSET -8.207800 -6.751701 -1.599544
		CHANNELS 6 Xposition Yposition Zposition Xrotation Yrotation Zrotation
		JOINT rightLowerLeg
		{
			OFFSET 0.000004 -44.370152 0.345934
			CHANNELS 3 Xrotation Yrotation Zrotation
			JOINT rightFoot
			{
				OFFSET 0.000004 -44.423664 -3.043535
				CHANNELS 3 Xrotation Yrotation Zrotation
				JOINT rightToes
				{
					OFFSET 0.000001 -8.728691 10.710592
					CHANNELS 3 Xrotation Yrotation Zrotation
					JOINT rightToesEnd
					{
						OFFSET 0.000000 -0.000665 9.278101
						CHANNELS 3 Xrotation Yrotation Zrotation
						End Site
						{
							OFFSET 0.000000 -0.000665 9.278103
						}
					}
				}
			}
		}
	}
	JOINT leftUpperLeg
	{
		OFFSET 8.207800 -6.751701 -1.599544
		CHANNELS 6 Xposition Yposition Zposition Xrotation Yrotation Zrotation
		JOINT leftLowerLeg
		{
			OFFSET 0.000004 -44.370037 0.346940
			CHANNELS 3 Xrotation Yrotation Zrotation
			JOINT leftFoot
			{
				OFFSET 0.000004 -44.423611 -3.044388
				CHANNELS 3 Xrotation Yrotation Zrotation
				JOINT leftToes
				{
					OFFSET 0.000001 -8.728690 10.710592
					CHANNELS 3 Xrotation Yrotation Zrotation
					JOINT leftToesEnd
					{
						OFFSET 0.000000 -0.000680 9.278101
						CHANNELS 3 Xrotation Yrotation Zrotation
						End Site
						{
							OFFSET 0.000000 -0.000680 9.278101
						}
					}
				}
			}
		}
	}
}
MOTION
Frames: 4
Frame Time: 0.033333
-5.369150 98.676094 -1.792715 -5.313317 3.596386 -9.925100 -0.000000 10.181564 0.131525 4.764751 2.070170 -8.362648 0.453414 0.230865 7.770947 0.420891 0.305847 7.770138 -0.000000 16.740351 -2.049024 2.346520 -5.043833 1.152029 0.000002 9.617858 1.684969 17.104312 -23.416347 7.515812 0.000001 22.037354 7.501077 -0.000001 0.000001 -0.000001 -4.570000 11.014877 -2.160844 1.087012 3.353818 -3.734432 17.905027 6.468649 21.057185 -0.000013 22.777667 0.000038 8.399758 6.695534 -46.894989 -2.464792 -1.573987 2.681902 -2.048912 -12.558915 -8.004020 5.443087 -17.651236 -0.837822 -2.646263 -1.527797 1.527816 -0.473910 -8.858982 -3.028545 -1.994606 -1.151581 1.151580 0.000002 -0.000006 0.000003 -9.108294 -0.517850 2.259795 0.104555 1.203707 -9.928312 0.000032 -0.020671 0.169539 0.028934 -0.634992 5.217971 -0.000001 0.000002 0.000001 -9.532492 -0.000006 -0.000004 0.031722 0.664791 -5.463544 0.026802 -0.611234 5.022179 0.117727 -1.276656 10.536830 0.000001 -0.000004 0.000002 -9.103596 -0.043113 -1.865105 0.000001 -0.004195 0.034364 0.135109 -1.366795 11.290477 0.308723 -2.052721 17.104081 0.000000 -0.000006 0.000001 -8.076690 -0.486724 -3.806302 0.021152 -0.543207 4.462040 0.282083 -1.964117 16.343850 0.521548 -2.646694 22.291299 0.000001 0.000004 0.000003 4.570395 11.014693 -2.160818 -2.358319 5.233144 26.309153 11.951739 -1.617435 -4.834551 -0.000021 -65.903956 -0.000015 -3.963536 12.165732 5.541164 2.466093 -1.576223 2.681694 -1.709194 11.927802 7.384731 4.614786 16.216788 1.362180 2.647895 -1.528750 1.528750 0.156762 9.826685 3.328268 1.998929 -1.154079 1.154072 0.000000 0.000004 0.000001 9.109289 -0.518000 2.259887 0.029742 0.640714 -5.316845 0.054048 0.862864 -7.169111 0.068870 0.973622 -8.095337 0.000001 -0.000000 -0.000000 9.533398 0.000011 -0.000012 0.053077 0.855122 -7.104295 0.086844 1.092467 -9.091735 0.104056 1.195024 -9.953746 -0.000000 0.000003 -0.000001 9.104496 -0.042991 -1.865112 0.093191 1.131420 -9.418677 0.136658 1.367833 -11.411707 0.157817 1.468765 -12.266646 0.000001 0.000001 -0.000000 8.077794 -0.486895 -3.806305 0.916494 5.336978 -10.867686 0.178321 -2.479058 -13.682995 0.208615 1.685453 -14.112342 -0.000002 -0.000000 0.000002 -8.207803 -6.751693 -1.599541 -6.903467 -9.525553 10.383634 30.205993 -9.123270 3.522237 -16.911905 -4.790232 -2.800117 -1.259408 0.000009 -0.000001 0.000000 -0.000000 -0.000000 8.207800 -6.751691 -1.599542 -18.584134 4.997255 11.525505 42.032332 -6.249005 6.968740 -19.193047 0.646680 -2.926641 -0.000181 0.000001 0.000000 -0.000000 0.000000 0.000000 
-5.776915 98.711060 -1.848067 -5.721609 3.110824 -9.434184 -0.000001 10.181550 0.131525 5.279758 2.462140 -9.557690 0.370503 0.284428 7.418741 0.331347 0.362150 7.417114 -0.000000 16.740377 -2.049022 2.553676 -5.251233 1.527117 0.000002 9.617831 1.684971 18.193408 -23.945067 8.825537 0.000001 22.037384 7.501072 -0.000000 -0.000001 0.000000 -4.570001 11.014909 -2.160844 1.284655 4.376195 -3.653265 19.305618 7.909554 22.582137 -0.000006 19.623617 0.000031 6.223113 5.792479 -44.575242 -2.464794 -1.574016 2.681909 -2.048919 -12.558901 -8.004034 5.443084 -17.651229 -0.837813 -2.646288 -1.527799 1.527811 -0.473911 -8.858979 -3.028544 -1.994595 -1.151603 1.151572 0.000005 -0.000005 0.000002 -9.108288 -0.517865 2.259803 0.097677 1.163728 -9.595209 0.000115 -0.040953 0.336029 0.029868 -0.645087 5.301232 0.000001 -0.000002 -0.000002 -9.532495 -0.000005 -0.000005 0.027806 0.622478 -5.114785 0.028758 -0.633081 5.202205 0.119664 -1.287009 10.623320 0.000001 -0.000001 0.000001 -9.103600 -0.043091 -1.865100 0.000164 -0.049415 0.405489 0.139724 -1.389678 11.482162 0.312036 -2.063442 17.196246 -0.000001 0.000001 0.000001 -8.076695 -0.486709 -3.806299 0.025039 -0.590784 4.853718 0.288833 -1.986989 16.539906 0.526082 -2.657734 22.389430 -0.000000 0.000002 -0.000000 4.570399 11.014713 -2.160818 -2.660959 6.039501 26.132985 10.141692 -0.114720 -2.539906 0.000003 -69.200950 -0.000000 -3.558646 11.968263 4.801226 2.466099 -1.576201 2.681690 -1.709196 11.927802 7.384736 4.614785 16.216795 1.362182 2.647888 -1.528734 1.528748 0.156755 9.826678 3.328268 1.998921 -1.154083 1.154080 -0.000001 0.000001 0.000001 9.109293 -0.518019 2.259895 0.026694 0.607159 -5.037855 0.051958 0.846163 -7.029608 0.067716 0.965295 -8.025589 -0.000000 -0.000000 0.000001 9.533402 0.000020 -0.000003 0.049010 0.821911 -6.827112 0.084143 1.075429 -8.948652 0.102629 1.186857 -9.885004 -0.000000 -0.000005 0.000002 9.104498 -0.043004 -1.865104 0.087795 1.098387 -9.141457 0.133262 1.350923 -11.268597 0.156058 1.460657 -12.197878 -0.000001 0.000004 -0.000002 8.077809 -0.486896 -3.806302 0.890453 5.307708 -10.587031 0.174356 -2.495420 -13.543683 0.206566 1.677286 -14.042547 -0.000001 -0.000000 0.000000 -8.207804 -6.751704 -1.599543 -6.640213 -9.660347 10.076107 30.359658 -9.190685 3.356677 -16.975050 -3.932908 -2.869574 -1.112590 -0.000007 -0.000001 -0.000000 0.000000 0.000000 8.207799 -6.751709 -1.599548 -17.976518 5.275342 11.387875 41.657775 -6.081441 6.862672 -19.038129 0.716833 -3.218379 -0.000184 -0.000001 -0.000001 -0.000000 -0.000000 0.000000 
-6.152147 98.737831 -1.896965 -6.144413 2.663270 -8.936512 0.000000 10.181538 0.131525 5.831462 2.774756 -10.633421 0.274430 0.328774 7.077744 0.230092 0.408529 7.075104 0.000001 16.740387 -2.049021 2.744494 -5.398552 1.697961 -0.000001 9.617878 1.684969 19.247982 -24.469646 10.181406 0.000002 22.037338 7.501079 -0.000001 0.000001 -0.000000 -4.569999 11.014874 -2.160841 1.458819 5.315421 -3.842495 20.929554 10.292433 24.168739 -0.000011 16.258553 0.000005 4.383719 5.094162 -43.021357 -2.464802 -1.574018 2.681918 -2.048905 -12.558920 -8.004037 5.443084 -17.651231 -0.837813 -2.646268 -1.527804 1.527815 -0.473912 -8.858979 -3.028550 -1.994571 -1.151582 1.151572 0.000001 -0.000004 -0.000002 -9.108290 -0.517883 2.259817 0.083446 1.076222 -8.867458 0.000531 -0.085287 0.699778 0.031941 -0.667151 5.483107 0.000000 -0.000000 -0.000001 -9.532502 0.000004 0.000012 0.020138 0.529949 -4.352839 0.033273 -0.680784 5.595495 0.123938 -1.309646 10.812360 -0.000001 0.000004 -0.000000 -9.103601 -0.043106 -1.865094 0.001580 -0.148217 1.216337 0.150062 -1.439621 11.900929 0.319310 -2.086833 17.397573 -0.000000 -0.000004 0.000001 -8.076694 -0.486736 -3.806285 0.034632 -0.694621 5.709486 0.303891 -2.036928 16.968282 0.536052 -2.681793 22.603794 0.000004 -0.000001 0.000001 4.570396 11.014699 -2.160815 -2.962077 6.899628 25.685273 7.998240 1.069703 -0.241653 -0.000044 -72.079936 -0.000040 -2.383502 11.498875 4.048758 2.466094 -1.576236 2.681707 -1.709195 11.927805 7.384738 4.614788 16.216793 1.362181 2.647885 -1.528714 1.528754 0.156761 9.826687 3.328266 1.998917 -1.154075 1.154072 0.000000 0.000002 -0.000000 9.109299 -0.518033 2.259907 0.027159 0.612289 -5.080377 0.052276 0.848705 -7.050877 0.067886 0.966550 -8.036213 0.000004 -0.000001 -0.000001 9.533407 0.000023 0.000004 0.049631 0.826965 -6.869363 0.084549 1.078022 -8.970453 0.102845 1.188106 -9.895486 0.000002 -0.000001 0.000000 9.104495 -0.042991 -1.865095 0.088621 1.103424 -9.183712 0.133781 1.353499 -11.290401 0.156330 1.461892 -12.208361 -0.000000 0.000004 0.000002 8.077808 -0.486894 -3.806298 0.894429 5.312204 -10.629811 0.174955 -2.492926 -13.564912 0.206878 1.678523 -14.053183 -0.000000 0.000004 0.000000 -8.207799 -6.751729 -1.599544 -6.363594 -9.805256 9.738504 30.554158 -9.274568 3.167083 -17.069707 -3.001220 -2.886884 -1.030022 0.000005 -0.000002 -0.000000 0.000000 0.000000 8.207801 -6.751719 -1.599545 -17.316673 5.466265 11.136970 41.287711 -5.780254 6.813535 -18.898930 0.796580 -3.547367 -0.000168 0.000000 -0.000000 0.000000 -0.000000 0.000000 
-6.505242 98.781250 -1.944018 -6.507507 2.102512 -8.451939 0.000003 10.181568 0.131523 6.325269 3.133717 -11.597350 0.145156 0.381611 6.727480 0.095158 0.460975 6.723467 -0.000000 16.740360 -2.049020 2.995093 -5.476499 1.721290 0.000004 9.617826 1.684975 20.202716 -24.908228 11.584425 -0.000000 22.037384 7.501072 0.000000 0.000001 0.000000 -4.570003 11.014864 -2.160841 1.634461 6.261167 -4.179305 22.707473 13.190641 25.852423 -0.000005 12.993080 0.000011 2.736514 4.649774 -42.037509 -2.464808 -1.574008 2.681911 -2.048920 -12.558912 -8.004030 5.443087 -17.651229 -0.837813 -2.646286 -1.527802 1.527812 -0.473910 -8.858982 -3.028546 -1.994593 -1.151598 1.151569 -0.000000 -0.000001 -0.000002 -9.108314 -0.517863 2.259800 0.067110 0.965693 -7.950360 0.001427 -0.141142 1.158160 0.034675 -0.694962 5.712337 0.000004 -0.000003 -0.000000 -9.532506 -0.000007 -0.000001 0.012233 0.413204 -3.392651 0.039425 -0.740881 6.091180 0.129455 -1.338127 11.050584 -0.000003 0.000003 0.000000 -9.103597 -0.043108 -1.865098 0.005325 -0.272697 2.238203 0.163619 -1.502475 12.428752 0.328624 -2.116278 17.651313 -0.000002 0.000000 0.000003 -8.076694 -0.486712 -3.806295 0.048932 -0.825266 6.788032 0.323352 -2.099672 17.508131 0.548784 -2.712118 22.874001 -0.000002 0.000000 0.000002 4.570399 11.014682 -2.160814 -3.210459 7.662213 25.140753 5.711730 1.904983 1.871412 -0.000009 -74.558680 -0.000012 -0.663560 10.936495 3.546758 2.466091 -1.576226 2.681706 -1.709197 11.927804 7.384737 4.614786 16.216793 1.362183 2.647894 -1.528751 1.528746 0.156755 9.826683 3.328265 1.998924 -1.154082 1.154075 -0.000000 0.000002 0.000003 9.109278 -0.518038 2.259911 0.031145 0.655645 -5.441128 0.054985 0.870287 -7.231256 0.069417 0.977339 -8.126427 -0.000001 0.000002 0.000001 9.533396 -0.000028 0.000009 0.054925 0.869885 -7.227763 0.088072 1.100075 -9.155479 0.104692 1.198658 -9.984372 -0.000002 0.000006 -0.000001 9.104495 -0.043028 -1.865088 0.095654 1.146109 -9.542174 0.138175 1.375374 -11.475452 0.158608 1.472363 -12.297293 -0.000002 -0.000001 0.000001 8.077794 -0.486933 -3.806288 0.928144 5.349976 -10.992726 0.180093 -2.471770 -13.745045 0.209533 1.689078 -14.143437 0.000003 -0.000004 0.000001 -8.207797 -6.751694 -1.599543 -6.128243 -9.919113 9.405291 30.674127 -9.386202 2.966371 -17.113710 -1.999944 -2.896328 -0.910703 -0.000003 0.000000 -0.000000 0.000002 0.000000 8.207802 -6.751687 -1.599543 -16.665253 5.649216 10.864743 40.839067 -5.362832 6.734102 -18.729562 0.869754 -3.886691 -0.000142 -0.000000 -0.000001 0.000000 -0.000000 0.000000 
